# AST/ASF file generated using VICON BodyLanguage
# -----------------------------------------------
:version 1.10
:name VICON
:units
  mass 1.0
  length 0.45
  angle deg
:documentation
   .ast/.asf automatically generated from VICON data using
   VICON BodyBuilder and BodyLanguage model FoxedUp or BRILLIANT.MOD
:root
   order TX TY TZ RX RY RZ
   axis XYZ
   position 0 0 0  
   orientation 0 0 0 
:bonedata
  begin
     id 1 
     name lhipjoint
     direction 0.567725 -0.736092 0.368589 
     length 2.42353 
     axis 0 0 0  XYZ
  end
  begin
     id 2 
     name lfemur
     direction 0.34202 -0.939693 0  
     length 7.24894  
     axis 0 0 20  XYZ
    dof rx ry rz
    limits (-160.0 20.0)
           (-70.0 70.0)
           (-60.0 70.0)
  end
  begin
     id 3 
     name ltibia
     direction 0.34202 -0.939693 0   
     length 7.6997   
     axis 0 0 20   XYZ
    dof rx
    limits (-10.0 170.0)
  end
  begin
     id 4 
     name lfoot
     direction 0.100767 -0.276854 0.955614   
     length 2.37556   
     axis -90 7.62852e-016 20   XYZ
    dof rx rz
    limits (-45.0 90.0)
           (-70.0 20.0)
  end
  begin
     id 5 
     name ltoes
     direction 1.53592e-011 -4.21894e-011 1   
     length 1.18363   
     axis -90 7.62852e-016 20   XYZ
    dof rx
    limits (-90.0 20.0)
  end
  begin
     id 6 
     name rhipjoint
     direction -0.556459 -0.742938 0.372017   
     length 2.4012  
     axis 0 0 0  XYZ 
  end
  begin
     id 7 
     name rfemur
     direction -0.34202 -0.939693 0   
     length 7.5119   
     axis 0 0 -20   XYZ
    dof rx ry rz
    limits (-160.0 20.0)
           (-70.0 70.0)
           (-70.0 60.0)
  end
  begin
     id 8 
     name rtibia
     direction -0.34202 -0.939693 0   
     length 7.50155   
     axis 0 0 -20   XYZ
    dof rx
    limits (-10.0 170.0)
 end
 begin
     id 9 
     name rfoot
     direction -0.118427 -0.325376 0.938139   
     length 2.32487  
     axis -90 -7.62852e-016 -20   XYZ
    dof rx rz
    limits (-45.0 90.0)
           (-20.0 70.0)
  end
  begin
     id 10 
     name rtoes
     direction -1.53525e-011 -4.21868e-011 1   
     length 1.15233   
     axis -90 -7.62852e-016 -20   XYZ
    dof rx
    limits (-90.0 20.0)
  end
  begin
     id 11 
     name lowerback
     direction 0.0287568 0.999577 -0.00434502   
     length 2.15243   
     axis 0 0 0   XYZ
    dof rx ry rz
    limits (-20.0 45.0)
           (-30.0 30.0)
           (-30.0 30.0)
  end
  begin
     id 12 
     name upperback
     direction 0.0294009 0.99956 0.00404628   
     length 2.15427   
     axis 0 0 0   XYZ
    dof rx ry rz
    limits (-20.0 45.0)
           (-30.0 30.0)
           (-30.0 30.0)
  end
  begin
     id 13 
     name thorax
     direction 0.0151014 0.999868 0.0059419   
     length 2.14898   
     axis 0 0 0   XYZ
    dof rx ry rz
    limits (-20.0 45.0)
           (-30.0 30.0)
           (-30.0 30.0)
  end
  begin
     id 14 
     name lowerneck
     direction -0.0249197 0.989906 0.139515   
     length 1.6861   
     axis 0 0 0   XYZ
    dof rx ry rz
    limits (-20.0 45.0)
           (-30.0 30.0)
           (-30.0 30.0)
  end
  begin
     id 15 
     name upperneck
     direction 0.0438463 0.988795 -0.142693   
     length 1.71276   
     axis 0 0 0   XYZ
    dof rx ry rz
    limits (-20.0 45.0)
           (-30.0 30.0)
           (-30.0 30.0)
  end
  begin
     id 16
     name head
     direction 0.0148499 0.997845 -0.0639186  
     length 1.7209  
     axis 0 0 0   XYZ
    dof rx ry rz
    limits (-20.0 45.0)
           (-30.0 30.0)
           (-30.0 30.0)
  end
  begin
     id 17 
     name lclavicle
     direction 0.940298 0.323464 -0.105876  
     length 3.9048  
     axis 0 0 0   XYZ
    dof ry rz
    limits (-20.0 10.0)
           (0.0 20.0)
  end
  begin
     id 18 
     name lhumerus
     direction 1 -4.48954e-011 -4.9675e-028   
     length 4.6851   
     axis 180 -30 -90   XYZ
    dof rx ry rz
    limits (-60.0 90.0)
           (-90.0 90.0)
           (-90.0 90.0)
  end
  begin
     id 19
     name lradius
     direction 1 -4.48992e-011 -1.03359e-026   
     length 3.39626   
     axis 180 -30 -90   XYZ
    dof rx
    limits (-10.0 170.0)
  end
  begin
     id 20
     name lwrist
     direction 1 -4.48906e-011 -1.67336e-026   
     length 1.69813   
     axis 9.90442e-015 90 90   XYZ
    dof ry
    limits (-180.0 0.0)
 end
  begin
     id 21 
     name lhand
     direction 1 -4.49006e-011 -3.34673e-026   
     length 0.486078   
     axis 2.1355e-014 90 90   XYZ
    dof rx rz
    limits (-90.0 90.0)
           (-45.0 45.0)
  end
  begin
     id 22 
     name lfingers
     direction 1 -4.48992e-011 -6.69345e-026   
     length 0.391889   
     axis 4.27099e-014 90 90   XYZ
    dof rx
    limits (0.0 90.0)
  end
  begin
     id 23
     name lthumb
     direction 0.707107 -6.34926e-011 0.707107   
     length 0.562676   
     axis -90 45 2.85299e-015   XYZ
    dof rx rz
    limits (-45.0 45.0)
           (-45.0 45.0)
  end
  begin
     id 24 
     name rclavicle
     direction -0.882459 0.414895 -0.221648   
     length 3.44646  
     axis 0 0 0   XYZ 
    dof ry rz
    limits (-10.0 20.0)
           (-20.0 0.0)
  end
  begin
     id 25 
     name rhumerus
     direction -1 -4.48962e-011 -2.37984e-027  
     length 5.55576   
     axis 180 30 90   XYZ
    dof rx ry rz
    limits (-90.0 60.0)
           (-90.0 90.0)
           (-90.0 90.0)
  end
  begin
     id 26 
     name rradius
     direction -1 -4.48982e-011 -6.86791e-027   
     length 3.32774   
     axis 180 30 90   XYZ
    dof rx
    limits (-10.0 170.0)
  end
  begin
     id 27 
     name rwrist
     direction -1 -4.48961e-011 -1.67336e-026   
     length 1.66387   
     axis 9.90442e-015 -90 -90   XYZ
    dof ry
    limits (-180.0 0.0)
  end
  begin
     id 28
     name rhand
     direction -1 -4.4897e-011 -3.34673e-026   
     length 0.507628   
     axis 2.1355e-014 -90 -90   XYZ
    dof rx rz
    limits (-90.0 90.0)
           (-45.0 45.0)
  end
  begin
     id 29
     name rfingers
     direction -1 -4.48854e-011 -6.69345e-026   
     length 0.409263   
     axis 4.27099e-014 -90 -90   XYZ
    dof rx
    limits (0.0 90.0)
  end
  begin
     id 30
     name rthumb
     direction -0.707107 -6.34913e-011 0.707107   
     length 0.587622   
     axis -90 -45 -2.85299e-015   XYZ
    dof rx rz
    limits (-45.0 45.0)
           (-45.0 45.0)
  end
:hierarchy
  begin
    root lhipjoint rhipjoint lowerback
    lhipjoint lfemur
    lfemur ltibia
    ltibia lfoot
    lfoot ltoes
    rhipjoint rfemur
    rfemur rtibia
    rtibia rfoot
    rfoot rtoes
    lowerback upperback
    upperback thorax
    thorax lowerneck lclavicle rclavicle
    lowerneck upperneck
    upperneck head
    lclavicle lhumerus
    lhumerus lradius
    lradius lwrist
    lwrist lhand lthumb
    lhand lfingers
    rclavicle rhumerus
    rhumerus rradius
    rradius rwrist
    rwrist rhand rthumb
    rhand rfingers
  end

#!OML:ASF E:\motion texture\Top Level 1\Subject 1\Session 1\male.ASF
:FULLY-SPECIFIED
:DEGREES
17
root 28.716 17.8899 6.68901 98.6972 -82.4393 -91
lowerback 1.10113 2.91695 7.81114
upperback -3.7933 4.15492 3.3202
thorax -4.2603 1.79568 -1.09254
lowerneck -17.7037 -7.77343 -8.74876
upperneck 14.3684 -9.9887 8.47515
head 8.24125 -4.4442 2.97093
rclavicle 1.54804e-014 -2.8625e-014
rhumerus -15.2114 -7.21683 -77.2164
rradius 65.6014
rwrist -14.8053
rhand -8.05698 -28.446
rfingers 7.12502
rthumb 17.854 -57.6464
lclavicle 1.54804e-014 -2.8625e-014
lhumerus -47.0847 25.0673 41.5335
lradius 60.6757
lwrist 20.9035
lhand -0.718314 24.1963
lfingers 7.12502
lthumb 24.9022 52.5941
rfemur -2.61162 3.45034 35.021
rtibia 11.8245
rfoot -10.0541 -4.49414
rtoes 22.0309
lfemur -34.4974 1.12461 -8.46986
ltibia 46.2844
lfoot -8.01288 4.40299
ltoes -15.1091
18
root 28.5863 17.8772 6.67507 100.429 -82.3332 -92.6426
lowerback 1.02512 3.01002 7.91004
upperback -3.79308 4.27172 3.24794
thorax -4.19639 1.85143 -1.22085
lowerneck -17.7628 -7.73931 -8.71897
upperneck 14.331 -9.96357 8.58368
head 8.24156 -4.41947 3.00471
rclavicle -3.32964e-014 -4.01545e-014
rhumerus -14.7264 -7.2508 -77.0719
rradius 67.7793
rwrist -15.3114
rhand -8.20334 -28.2751
rfingers 7.12502
rthumb 17.7132 -57.4883
lclavicle -3.32964e-014 -4.01545e-014
lhumerus -47.1514 25.5479 40.6776
lradius 63.069
lwrist 22.4996
lhand -0.924569 24.4858
lfingers 7.12502
lthumb 24.7045 52.9109
rfemur -2.23798 3.50491 35.1769
rtibia 11.8525
rfoot -10.2905 -4.2999
rtoes 21.6855
lfemur -34.7996 1.15523 -8.45197
ltibia 44.2464
lfoot -8.10166 4.58058
ltoes -15.0839
19
root 28.4559 17.8636 6.66159 102.163 -82.2284 -94.2678
lowerback 0.941189 3.10466 7.97279
upperback -3.81227 4.38978 3.19027
thorax -4.1512 1.90808 -1.31394
lowerneck -17.8198 -7.69898 -8.72886
upperneck 14.3406 -9.92537 8.69923
head 8.25852 -4.38964 3.04898
rclavicle -1.83161e-014 -5.1684e-015
rhumerus -14.2521 -7.28111 -76.8739
rradius 69.8631
rwrist -15.8016
rhand -8.36869 -28.0744
rfingers 7.12502
rthumb 17.5541 -57.3019
lclavicle -1.83161e-014 -5.1684e-015
lhumerus -47.2095 26.0265 39.8445
lradius 65.4522
lwrist 24.165
lhand -1.02403 24.66
lfingers 7.12502
lthumb 24.6092 53.098
rfemur -1.89275 3.53143 35.3124
rtibia 11.9003
rfoot -10.5319 -4.07858
rtoes 21.3482
lfemur -35.0378 1.16782 -8.43546
ltibia 42.0697
lfoot -8.09795 4.73616
ltoes -15.1328
20
root 28.3242 17.8491 6.6485 103.83 -82.1251 -95.8124
lowerback 0.861766 3.20267 7.99672
upperback -3.85584 4.5133 3.14962
thorax -4.13733 1.96715 -1.36895
lowerneck -17.8625 -7.65417 -8.7564
upperneck 14.3825 -9.87632 8.79423
head 8.28249 -4.35761 3.09111
rclavicle 4.41053e-015 1.86858e-014
rhumerus -13.8089 -7.3098 -76.612
rradius 71.8507
rwrist -16.2668
rhand -8.59967 -27.8569
rfingers 7.12502
rthumb 17.3318 -57.1041
lclavicle 4.41053e-015 1.86858e-014
lhumerus -47.2499 26.4899 39.0522
lradius 67.8157
lwrist 25.8707
lhand -1.03499 24.7592
lfingers 7.12502
lthumb 24.5987 53.1987
rfemur -1.55879 3.52817 35.4288
rtibia 11.9538
rfoot -10.7769 -3.8321
rtoes 21.0285
lfemur -35.2047 1.14583 -8.41729
ltibia 39.7576
lfoot -8.00497 4.86342
ltoes -15.2439
21
root 28.1911 17.8338 6.63573 105.438 -82.0248 -97.2856
lowerback 0.792346 3.303 8.00876
upperback -3.91434 4.6416 3.10594
thorax -4.14482 2.02782 -1.42149
lowerneck -17.9201 -7.60951 -8.78474
upperneck 14.46 -9.82701 8.87829
head 8.32026 -4.3257 3.1294
rclavicle -7.91722e-015 -4.37326e-015
rhumerus -13.3728 -7.36118 -76.3201
rradius 73.7213
rwrist -16.6774
rhand -8.9066 -27.6349
rfingers 7.12502
rthumb 17.0363 -56.9079
lclavicle -7.91722e-015 -4.37326e-015
lhumerus -47.2355 26.9353 38.2979
lradius 70.1364
lwrist 27.5343
lhand -0.98018 24.7931
lfingers 7.12502
lthumb 24.6512 53.2254
rfemur -1.23402 3.49824 35.5241
rtibia 12.014
rfoot -11.0252 -3.5685
rtoes 20.7528
lfemur -35.2993 1.07541 -8.39242
ltibia 37.317
lfoot -7.82536 4.96173
ltoes -15.4979
22
root 28.0566 17.8176 6.62316 106.941 -81.9049 -98.6439
lowerback 0.679272 3.4024 8.04504
upperback -3.97488 4.76392 3.05699
thorax -4.12774 2.08528 -1.4895
lowerneck -17.8942 -7.54934 -8.78911
upperneck 14.5018 -9.76557 8.9554
head 8.32879 -4.29046 3.16562
rclavicle -4.99912e-014 -6.08281e-014
rhumerus -12.9412 -7.43972 -76.0248
rradius 75.4691
rwrist -16.9835
rhand -9.25146 -27.4205
rfingers 7.12502
rthumb 16.7044 -56.7218
lclavicle -4.99912e-014 -6.08281e-014
lhumerus -47.1623 27.3595 37.5652
lradius 72.3889
lwrist 29.0385
lhand -0.879937 24.7444
lfingers 7.12502
lthumb 24.7473 53.1636
rfemur -0.918762 3.45799 35.6285
rtibia 12.0803
rfoot -11.2708 -3.29693
rtoes 20.5116
lfemur -35.3284 0.953416 -8.32701
ltibia 34.7709
lfoot -7.59467 5.04571
ltoes -15.7901
23
root 27.9205 17.8006 6.61116 108.255 -81.7958 -99.8017
lowerback 0.543291 3.49624 8.09462
upperback -4.04259 4.87655 2.98872
thorax -4.10303 2.13733 -1.58276
lowerneck -17.8201 -7.47767 -8.78343
upperneck 14.5241 -9.69544 9.04155
head 8.32154 -4.25154 3.20581
rclavicle -3.54722e-014 1.55052e-014
rhumerus -12.5234 -7.55652 -75.729
rradius 77.0933
rwrist -17.1797
rhand -9.63796 -27.2224
rfingers 7.12502
rthumb 16.3323 -56.5546
lclavicle -3.54722e-014 1.55052e-014
lhumerus -47.0108 27.7484 36.8616
lradius 74.5438
lwrist 30.2748
lhand -0.760913 24.6166
lfingers 7.12502
lthumb 24.8614 53.0201
rfemur -0.610593 3.37943 35.7077
rtibia 12.1431
rfoot -11.5105 -3.00516
rtoes 20.2783
lfemur -35.2988 0.751856 -8.25487
ltibia 32.1387
lfoot -7.33737 5.11301
ltoes -16.1039
24
root 27.7831 17.783 6.59937 109.532 -81.6703 -100.916
lowerback 0.374568 3.59166 8.17074
upperback -4.09779 4.98696 2.91355
thorax -4.04375 2.18881 -1.6944
lowerneck -17.7268 -7.39596 -8.76516
upperneck 14.5217 -9.61414 9.12793
head 8.3009 -4.20755 3.24613
rclavicle 8.7077e-015 7.55382e-015
rhumerus -12.0845 -7.70818 -75.4378
rradius 78.5804
rwrist -17.2442
rhand -10.0401 -27.0073
rfingers 7.12502
rthumb 15.9451 -56.3709
lclavicle 8.7077e-015 7.55382e-015
lhumerus -46.7637 28.1334 36.2043
lradius 76.572
lwrist 31.1541
lhand -0.658305 24.3949
lfingers 7.12502
lthumb 24.9597 52.7847
rfemur -0.315995 3.30157 35.7926
rtibia 12.2236
rfoot -11.7445 -2.70398
rtoes 20.0162
lfemur -35.207 0.493758 -8.1363
ltibia 29.4437
lfoot -7.09155 5.18145
ltoes -16.376
25
root 27.6439 17.7647 6.58785 110.782 -81.5361 -102.002
lowerback 0.167467 3.68997 8.25376
upperback -4.13505 5.09546 2.8408
thorax -3.94317 2.24121 -1.80333
lowerneck -17.6254 -7.30613 -8.75447
upperneck 14.4971 -9.51922 9.22003
head 8.27071 -4.15749 3.29166
rclavicle 5.07087e-014 -5.56597e-015
rhumerus -11.6263 -7.88565 -75.132
rradius 79.9359
rwrist -17.2079
rhand -10.4444 -26.7756
rfingers 7.12502
rthumb 15.5557 -56.17
lclavicle 5.07087e-014 -5.56597e-015
lhumerus -46.4252 28.5209 35.611
lradius 78.4595
lwrist 31.6596
lhand -0.596471 24.0838
lfingers 7.12502
lthumb 25.0189 52.4654
rfemur -0.0279605 3.22373 35.8733
rtibia 12.3195
rfoot -11.9719 -2.38343
rtoes 19.7246
lfemur -35.0539 0.176089 -7.98014
ltibia 26.714
lfoot -6.88706 5.25679
ltoes -16.5976
26
root 27.5032 17.7458 6.5767 112.047 -81.3904 -103.099
lowerback -0.0655822 3.79312 8.36319
upperback -4.16058 5.20661 2.75567
thorax -3.81165 2.29549 -1.93628
lowerneck -17.5024 -7.20603 -8.73968
upperneck 14.4472 -9.41312 9.32453
head 8.22769 -4.1018 3.34268
rclavicle 1.21787e-014 -3.57812e-015
rhumerus -11.1706 -8.09598 -74.8338
rradius 81.1696
rwrist -17.0978
rhand -10.8422 -26.5165
rfingers 7.12502
rthumb 15.1725 -55.9402
lclavicle 1.21787e-014 -3.57812e-015
lhumerus -45.9902 28.8937 35.0645
lradius 80.1996
lwrist 31.8325
lhand -0.581385 23.7104
lfingers 7.12502
lthumb 25.0334 52.09
rfemur 0.250566 3.15509 35.9512
rtibia 12.4445
rfoot -12.1954 -2.04172
rtoes 19.4101
lfemur -34.8489 -0.190116 -7.7852
ltibia 23.9872
lfoot -6.73659 5.3499
ltoes -16.7496
27
root 27.3606 17.7264 6.566 113.379 -81.246 -104.27
lowerback -0.261982 3.90362 8.43363
upperback -4.21245 5.33248 2.6877
thorax -3.7314 2.35588 -2.0332
lowerneck -17.3776 -7.10461 -8.74886
upperneck 14.4384 -9.29975 9.41427
head 8.19751 -4.04495 3.39351
rclavicle 1.83565e-015 6.83819e-014
rhumerus -10.7807 -8.30833 -74.481
rradius 82.2948
rwrist -16.9739
rhand -11.2287 -26.218
rfingers 7.12502
rthumb 14.8002 -55.6695
lclavicle 1.83565e-015 6.83819e-014
lhumerus -45.5283 29.2103 34.589
lradius 81.8046
lwrist 31.7135
lhand -0.647446 23.2935
lfingers 7.12502
lthumb 24.9701 51.6819
rfemur 0.524754 3.09575 36.008
rtibia 12.6035
rfoot -12.4146 -1.67591
rtoes 19.0528
lfemur -34.5955 -0.60596 -7.57001
ltibia 21.3023
lfoot -6.6369 5.47999
ltoes -16.8909
28
root 27.2162 17.7065 6.55598 114.779 -81.1094 -105.514
lowerback -0.46752 4.01412 8.49096
upperback -4.25646 5.4564 2.61598
thorax -3.6381 2.4166 -2.12504
lowerneck -17.2581 -6.99312 -8.75411
upperneck 14.4319 -9.17215 9.49927
head 8.16704 -3.98141 3.44386
rclavicle 2.80193e-014 2.10712e-014
rhumerus -10.4041 -8.5233 -74.1249
rradius 83.3141
rwrist -16.8679
rhand -11.579 -25.9101
rfingers 7.12502
rthumb 14.4627 -55.3861
lclavicle 2.80193e-014 2.10712e-014
lhumerus -45.0112 29.514 34.169
lradius 83.2773
lwrist 31.386
lhand -0.83911 22.8584
lfingers 7.12502
lthumb 24.7864 51.2722
rfemur 0.793245 3.03496 36.0342
rtibia 12.785
rfoot -12.611 -1.28815
rtoes 18.5846
lfemur -34.313 -1.05835 -7.35277
ltibia 18.7171
lfoot -6.58104 5.66204
ltoes -17.0066
29
root 27.0699 17.6862 6.54644 116.214 -80.9723 -106.805
lowerback -0.638647 4.12618 8.54029
upperback -4.31244 5.58695 2.54246
thorax -3.57631 2.4793 -2.21671
lowerneck -17.1482 -6.87684 -8.74788
upperneck 14.457 -9.03848 9.56213
head 8.14627 -3.91577 3.48543
rclavicle -1.10007e-014 3.45885e-014
rhumerus -10.0762 -8.74347 -73.7594
rradius 84.2352
rwrist -16.8016
rhand -11.8666 -25.6268
rfingers 7.12502
rthumb 14.1856 -55.1224
lclavicle -1.10007e-014 3.45885e-014
lhumerus -44.4579 29.7774 33.8044
lradius 84.6284
lwrist 30.9081
lhand -1.14841 22.4305
lfingers 7.12502
lthumb 24.49 50.8847
rfemur 1.06509 2.97848 36.0424
rtibia 12.9893
rfoot -12.7845 -0.889706
rtoes 18.0112
lfemur -34.0161 -1.52811 -7.12988
ltibia 16.3045
lfoot -6.59097 5.90202
ltoes -17.0695
30
root 26.9219 17.6657 6.53727 117.703 -80.8377 -108.164
lowerback -0.785898 4.23055 8.56797
upperback -4.37724 5.71033 2.47211
thorax -3.53973 2.53798 -2.29496
lowerneck -17.0361 -6.74275 -8.71106
upperneck 14.5059 -8.88335 9.59043
head 8.12753 -3.84131 3.51337
rclavicle 2.36899e-014 3.00165e-014
rhumerus -9.79003 -8.93719 -73.3991
rradius 85.0583
rwrist -16.7833
rhand -12.0655 -25.3817
rfingers 7.12502
rthumb 13.9939 -54.8907
lclavicle 2.36899e-014 3.00165e-014
lhumerus -43.9093 30.0158 33.4718
lradius 85.8704
lwrist 30.3149
lhand -1.56006 22.0239
lfingers 7.12502
lthumb 24.0953 50.531
rfemur 1.33626 2.9398 36.0289
rtibia 13.2274
rfoot -12.9383 -0.491809
rtoes 17.3695
lfemur -33.7354 -1.97116 -6.92815
ltibia 14.1597
lfoot -6.67853 6.18636
ltoes -17.086
